<?xml version="1.0" standalone="no"?>
<!DOCTYPE svg PUBLIC "-//W3C//DTD SVG 20010904//EN"
 "http://www.w3.org/TR/2001/REC-SVG-20010904/DTD/svg10.dtd">
<svg version="1.0" xmlns="http://www.w3.org/2000/svg"
 width="800" height="800" viewBox="0 0 1024 1024"
 preserveAspectRatio="xMidYMid meet">

<g transform="translate(0.000000,536.000000) scale(0.100000,-0.100000)"
fill="#FF0000" stroke="none">
<path d="m5240 3416 c58 -24 326 -141 595 -260 270 -120 535 -237 590 -261 299
-131 824 -362 1145 -505 201 -90 405 -180 454 -202 49 -21 98 -44 109 -49 21
-12 -92 -69 -2241 -1135 l-774 -383 -376 183 c-207 101 -597 293 -867 426
-269 133 -578 285 -685 337 -1024 502 -1106 544 -1086 559 11 8 23 14 27 14 4
0 220 95 481 211 260 116 676 301 923 411 448 199 877 391 1325 592 129 58
244 105 255 105 11 1 67 -19 125 -43z m3002 -3328 c-8 -1519 -10 -1658 -25
-1682 -9 -14 -49 -44 -89 -67 -40 -23 -104 -61 -143 -84 -38 -23 -151 -89
-250 -147 -1151 -675 -1662 -975 -2050 -1205 -219 -129 -433 -255 -477 -280
-5 -2 -8 865 -8 1927 l0 1930 363 179 c199 98 754 373 1232 611 479 238 1001
497 1160 577 l290 144 3 -123 c1 -68 -1 -868 -6 -1780z m-5742 1639 c107 -52
393 -193 635 -312 242 -120 764 -377 1160 -572 396 -195 723 -358 728 -362 4
-4 6 -874 5 -1933 l-3 -1925 -460 272 c-430 254 -988 582 -1515 890 -124 72
-346 203 -495 290 -148 87 -328 193 -400 235 -83 48 -134 84 -142 100 -8 19
-13 481 -19 1798 l-7 1774 159 -80 c87 -44 247 -122 354 -175z"/>
</g>

<!-- Texto ExtenRe agregado -->
<text x="50%" y="98%" font-family="Arial" font-size="190" fill="#FF0000" text-anchor="middle">𝙀𝙭𝙩𝙚𝙣𝙍𝙚</text>
</svg>